<mxfile host="Electron" agent="Mozilla/5.0 (Windows NT 10.0; Win64; x64) AppleWebKit/537.36 (KHTML, like Gecko) draw.io/24.7.5 Chrome/126.0.6478.183 Electron/31.3.0 Safari/537.36" version="24.7.5">
  <diagram name="Page-1" id="6aVL9uEqXLU43o3csnCd">
    <mxGraphModel dx="1434" dy="836" grid="1" gridSize="40" guides="1" tooltips="1" connect="1" arrows="1" fold="1" page="1" pageScale="1" pageWidth="1600" pageHeight="600" math="0" shadow="0">
      <root>
        <mxCell id="0" />
        <mxCell id="1" parent="0" />
        <object label="" Component="GROUND_1" id="MVAeIRhMMLrmpexx1cpM-8">
          <mxCell style="shape=image;html=1;verticalLabelPosition=bottom;verticalAlign=top;imageAspect=1;aspect=fixed;image=data:image/bmp,Qk02AwAAAAAAADYAAAAoAAAAEAAAABAAAAABABgAAAAAAAADAAAAAAAAAAAAAAAAAAAAAAAAWJjIWJjIWJjIWJjIWJjIWJjIWJjIWJjIWJjIWJjIWJjIWJjIWJjIWJjIWJjIWJjIWJjIWJjIWJjIWJjIWJjIWJjIWJjIWJjIWJjIWJjIWJjIWJjIWJjIWJjIWJjIWJjIWJjIWJjIWJjIWJjIWJjIWJjIWJjIWJjIWJjIWJjIUMDgWJjIWJjIWJjIWJjIWJjIWJjIWJjIWJjIUMDgUMDgWJjIWJjIWJjIWJjIWJjIUMDgWJjIWJjIWJjIWJjIWJjIWJjIWJjIWJjIUMDgUMDgWJjIWJjIWJjIWJjIWJjIWJjIWJjIWJjIUMDgUMDgWJjIWJjIWJjIWJjIUMDgUMDgWJjIWJjIWJjIWJjIWJjIWJjIWJjIWJjIUMDgUMDgWJjIWJjIWJjIWJjIWJjIWJjIWJjIWJjIWJjIWJjIWJjIWJjIWJjIWJjIUMDgUMDgWJjIWJjIWJjIWJjIWJjIWJjIWJjIWJjIWJjIWJjIWJjIWJjIWJjIWJjIWJjIWJjIWJjIWJjIGGh4GGh4GGh4GGh4GGh4GGh4WJjIWJjIWJjIWJjIGGh4GGh4GGh4WJjIWJjIGGh4GGh4GGh4AAAAAAAAAAAAGGh4GGh4GGh4GGh4GGh4GGh4GGh4GGh4GGh4GGh4GGh4AAAAAAAASHgASHgASHgAAAAAAAAAGGh4GGh4GGh4AAAAAAAAAAAAGGh4GGh4AAAASHgASHgAAMgAAMgAAMgASHgASHgAAAAAAAAAAAAASHgASHgASHgAAAAAAAAASHgAAMgAAMgAAMgAAMgAAMgAAMgAAMgASHgASHgASHgAAMgAAMgAAMgASHgASHgAAMgAAMgAAMgAAMgAAMgAAMgAAMgAAMgAAMgAAMgAAMgAAMgAAMgAAMgAAMgAAMgAAMgAAMgAAMgAAMgAAMgAAMgAAMgAAMgAAMgAAMgAAMgAAMgAAMgAAMgAAMgAAMgAAAAAAAAAAAAAAAAAAAAAAAAAAAAAAAAAAAAAAAAAAAAAAAAAAAAAAAAAAAAAAAAA;resizable=0;expand=0;resizeWidth=0;connectable=1;allowArrows=0;recursiveResize=0;editable=1;movable=1;rotatable=1;deletable=1;locked=0;" parent="1" vertex="1">
            <mxGeometry y="400" width="40" height="40" as="geometry" />
          </mxCell>
        </object>
        <object label="" Component="GROUND_1" id="piXy3ky1yifSXh5lKrbj-2">
          <mxCell style="shape=image;html=1;verticalLabelPosition=bottom;verticalAlign=top;imageAspect=1;aspect=fixed;image=data:image/bmp,Qk02AwAAAAAAADYAAAAoAAAAEAAAABAAAAABABgAAAAAAAADAAAAAAAAAAAAAAAAAAAAAAAAWJjIWJjIWJjIWJjIWJjIWJjIWJjIWJjIWJjIWJjIWJjIWJjIWJjIWJjIWJjIWJjIWJjIWJjIWJjIWJjIWJjIWJjIWJjIWJjIWJjIWJjIWJjIWJjIWJjIWJjIWJjIWJjIWJjIWJjIWJjIWJjIWJjIWJjIWJjIWJjIWJjIWJjIUMDgWJjIWJjIWJjIWJjIWJjIWJjIWJjIWJjIUMDgUMDgWJjIWJjIWJjIWJjIWJjIUMDgWJjIWJjIWJjIWJjIWJjIWJjIWJjIWJjIUMDgUMDgWJjIWJjIWJjIWJjIWJjIWJjIWJjIWJjIUMDgUMDgWJjIWJjIWJjIWJjIUMDgUMDgWJjIWJjIWJjIWJjIWJjIWJjIWJjIWJjIUMDgUMDgWJjIWJjIWJjIWJjIWJjIWJjIWJjIWJjIWJjIWJjIWJjIWJjIWJjIWJjIUMDgUMDgWJjIWJjIWJjIWJjIWJjIWJjIWJjIWJjIWJjIWJjIWJjIWJjIWJjIWJjIWJjIWJjIWJjIWJjIGGh4GGh4GGh4GGh4GGh4GGh4WJjIWJjIWJjIWJjIGGh4GGh4GGh4WJjIWJjIGGh4GGh4GGh4AAAAAAAAAAAAGGh4GGh4GGh4GGh4GGh4GGh4GGh4GGh4GGh4GGh4GGh4AAAAAAAASHgASHgASHgAAAAAAAAAGGh4GGh4GGh4AAAAAAAAAAAAGGh4GGh4AAAASHgASHgAAMgAAMgAAMgASHgASHgAAAAAAAAAAAAASHgASHgASHgAAAAAAAAASHgAAMgAAMgAAMgAAMgAAMgAAMgAAMgASHgASHgASHgAAMgAAMgAAMgASHgASHgAAMgAAMgAAMgAAMgAAMgAAMgAAMgAAMgAAMgAAMgAAMgAAMgAAMgAAMgAAMgAAMgAAMgAAMgAAMgAAMgAAMgAAMgAAMgAAMgAAMgAAMgAAMgAAMgAAMgAAMgAAMgAAMgAAAAAAAAAAAAAAAAAAAAAAAAAAAAAAAAAAAAAAAAAAAAAAAAAAAAAAAAAAAAAAAAA;resizable=0;expand=0;resizeWidth=0;connectable=1;allowArrows=0;recursiveResize=0;editable=1;movable=1;rotatable=1;deletable=1;locked=0;" vertex="1" parent="1">
            <mxGeometry x="40" y="400" width="40" height="40" as="geometry" />
          </mxCell>
        </object>
      </root>
    </mxGraphModel>
  </diagram>
</mxfile>
